<?xml version="1.0" encoding="utf-8" ?>
<svg baseProfile="full" height="120" version="1.1" width="322" xmlns="http://www.w3.org/2000/svg" xmlns:ev="http://www.w3.org/2001/xml-events" xmlns:xlink="http://www.w3.org/1999/xlink"><defs><style type="text/css"><![CDATA[
.key {
    stroke-width: 1.5px;
}

.white.key .box {
    fill: white;
    stroke: black;
}

.white.key .label {
    fill: black;
    font-size: 15px;
}

.black.key .box {
    fill: black;
    stroke: black;
}

.black.key .label {
    fill: white;
    font-size: 15px;
}

.key.selected .box {
    fill: #FEC47F;
}

.label {
    font-family: "Helvetica", "Nimbus Sans", sans-serif;
    font-weight: bold;
    text-anchor: middle;
}

.key .label.lower {
    fill: black;
    dominant-baseline: text-before-edge;
}

.key .label.upper {
    fill: white;
    dominant-baseline: text-after-edge;
}

text.notes {
    font-family: "Helvetica", "Nimbus Sans", sans-serif;
    font-size: 15px;
    font-weight: bold;
    text-anchor: middle;
    dominant-baseline: text-before-edge;
    transform: translate(0, 5px);
}
]]></style></defs><g class="scale"><g><g class="white key"><rect class="box" height="120" width="23" x="0" y="0" /></g><g class="white key"><rect class="box" height="120" width="23" x="23" y="0" /></g><g class="white key"><rect class="box" height="120" width="23" x="46" y="0" /></g><g class="white key"><rect class="box" height="120" width="23" x="69" y="0" /></g><g class="white key"><rect class="box" height="120" width="23" x="92" y="0" /></g><g class="white key selected"><rect class="box" height="120" width="23" x="115" y="0" /><text class="label lower" x="126.5" y="100.0">2</text><text class="label upper" x="126.5" y="100.0">1</text></g><g class="white key selected"><rect class="box" height="120" width="23" x="138" y="0" /><text class="label lower" x="149.5" y="100.0">1</text><text class="label upper" x="149.5" y="100.0">2</text></g><g class="white key"><rect class="box" height="120" width="23" x="161" y="0" /></g><g class="white key"><rect class="box" height="120" width="23" x="184" y="0" /></g><g class="white key"><rect class="box" height="120" width="23" x="207" y="0" /></g><g class="white key selected"><rect class="box" height="120" width="23" x="230" y="0" /><text class="label lower" x="241.5" y="100.0">1</text><text class="label upper" x="241.5" y="100.0">1</text></g><g class="white key"><rect class="box" height="120" width="23" x="253" y="0" /></g><g class="white key"><rect class="box" height="120" width="23" x="276" y="0" /></g><g class="white key"><rect class="box" height="120" width="23" x="299" y="0" /></g></g><g><g class="black key"><rect class="box" height="80" width="13" x="14.333333333333371" y="0" /></g><g class="black key"><rect class="box" height="80" width="13" x="41.66666666666663" y="0" /></g><g class="black key selected"><rect class="box" height="80" width="13" x="82.25" y="0" /><text class="label lower" x="88.75" y="40.0">4</text><text class="label upper" x="88.75" y="40.0">2</text></g><g class="black key selected"><rect class="box" height="80" width="13" x="108.25" y="0" /><text class="label lower" x="114.75" y="40.0">3</text><text class="label upper" x="114.75" y="40.0">3</text></g><g class="black key"><rect class="box" height="80" width="13" x="134.75" y="0" /></g><g class="black key selected"><rect class="box" height="80" width="13" x="175.33333333333337" y="0" /><text class="label lower" x="181.83333333333337" y="40.0">3</text><text class="label upper" x="181.83333333333337" y="40.0">3</text></g><g class="black key selected"><rect class="box" height="80" width="13" x="202.66666666666663" y="0" /><text class="label lower" x="209.16666666666663" y="40.0">2</text><text class="label upper" x="209.16666666666663" y="40.0">4</text></g><g class="black key selected"><rect class="box" height="80" width="13" x="243.25" y="0" /><text class="label lower" x="249.75" y="40.0">4</text><text class="label upper" x="249.75" y="40.0">2</text></g><g class="black key"><rect class="box" height="80" width="13" x="269.25" y="0" /></g><g class="black key"><rect class="box" height="80" width="13" x="295.75" y="0" /></g></g></g></svg>